<?xml version='1.0' encoding='utf-8'?>
<svg xmlns="http://www.w3.org/2000/svg" width=" 00" height="1000" viewBox="0 0 264.58332 264.58334" version="1.1" id="svg5"> <defs id="defs2"/> <metadata id="metadata856"> </metadata> <rect style="fill-opacity:0;stroke:none;stroke-width:10.5833;stroke-linecap:square;stroke-miterlimit:4;stroke-dasharray:none;stroke-opacity:1;paint-order:stroke markers fill" id="rect2834" width="264.58334" height="264.58334" x="0" y="0"/> <g id="g14677" transform="matrix(1.6666671,0,0,1.6666671,-158.2247,233.38763)" style="stroke-width:0.6"> <circle style="fill:#ffcc00;stroke:none;stroke-width:2.38125;stroke-linecap:square;paint-order:fill markers stroke" id="circle14650" cx="174.30978" cy="-60.657562" r="20.204304"/> <path id="path14652" style="fill:#ffcc00;stroke-width:3.175;stroke-linecap:round;paint-order:fill markers stroke" d="m 174.30978,-100.34505 c -1.46579,0 -2.64583,1.416044 -2.64583,3.174994 v 6.879167 c 0,1.75895 1.18004,3.175 2.64583,3.175 1.46579,0 2.64583,-1.41605 2.64583,-3.175 v -6.879167 c 0,-1.75895 -1.18004,-3.174994 -2.64583,-3.174994 z"/> <path id="path14654" style="fill:#ffcc00;stroke-width:3.175;stroke-linecap:round;paint-order:fill markers stroke" d="m 202.37308,-88.720855 c -1.03647,-1.03647 -2.87219,-0.869587 -4.11595,0.374179 l -4.86431,4.864305 c -1.24376,1.243766 -1.41065,3.079479 -0.37418,4.115949 1.03647,1.03647 2.87219,0.869585 4.11595,-0.37418 l 4.86431,-4.864306 c 1.24376,-1.243765 1.41065,-3.079477 0.37418,-4.115947 z"/> <path id="path14656" style="fill:#ffcc00;stroke-width:3.175;stroke-linecap:round;paint-order:fill markers stroke" d="m 213.99727,-60.657559 c 0,-1.46579 -1.41605,-2.645831 -3.175,-2.64583 l -6.87916,-10e-7 c -1.75895,10e-7 -3.175,1.180041 -3.175,2.645831 0,1.46579 1.41605,2.645829 3.175,2.64583 h 6.87916 c 1.75895,0 3.175,-1.18004 3.175,-2.64583 z"/> <path id="path14658" style="fill:#ffcc00;stroke-width:3.175;stroke-linecap:round;paint-order:fill markers stroke" d="m 202.37307,-32.594265 c 1.03647,-1.03647 0.86959,-2.872183 -0.37418,-4.115948 l -4.8643,-4.864306 c -1.24377,-1.243765 -3.07948,-1.410649 -4.11595,-0.374179 -1.03647,1.03647 -0.86959,2.872182 0.37418,4.115949 l 4.8643,4.864305 c 1.24377,1.243765 3.07948,1.410649 4.11595,0.374179 z"/> <path id="path14660" style="fill:#ffcc00;stroke-width:3.175;stroke-linecap:round;paint-order:fill markers stroke" d="m 174.30977,-20.97007 c 1.46579,0 2.64583,-1.41605 2.64583,-3.175 v -6.879166 c 0,-1.75895 -1.18004,-3.175 -2.64583,-3.175 -1.46579,0 -2.64583,1.41605 -2.64583,3.175 v 6.879167 c 0,1.758949 1.18004,3.174999 2.64583,3.174999 z"/> <path id="path14662" style="fill:#ffcc00;stroke-width:3.175;stroke-linecap:round;paint-order:fill markers stroke" d="m 146.24648,-32.594272 c 1.03647,1.03647 2.87218,0.869586 4.11595,-0.37418 l 4.8643,-4.864305 c 1.24377,-1.243765 1.41065,-3.079478 0.37418,-4.115948 -1.03647,-1.03647 -2.87218,-0.869586 -4.11595,0.37418 l -4.8643,4.864305 c -1.24377,1.243765 -1.41065,3.079478 -0.37418,4.115948 z"/> <path id="path14664" style="fill:#ffcc00;stroke-width:3.175;stroke-linecap:round;paint-order:fill markers stroke" d="m 134.62229,-60.657567 c 0,1.46579 1.41604,2.645829 3.175,2.645831 l 6.87916,-3e-6 c 1.75895,3e-6 3.175,-1.18004 3.175,-2.64583 0,-1.46579 -1.41605,-2.645828 -3.175,-2.645831 l -6.87916,4e-6 c -1.75896,-4e-6 -3.175,1.18004 -3.175,2.645829 z"/> <path id="path14666" style="fill:#ffcc00;stroke-width:3.175;stroke-linecap:round;paint-order:fill markers stroke" d="m 146.24649,-88.720856 c -1.03647,1.03647 -0.86959,2.872175 0.37418,4.115949 l 4.8643,4.864299 c 1.24376,1.243767 3.07948,1.410649 4.11595,0.374179 1.03647,-1.03647 0.86958,-2.872181 -0.37418,-4.115949 l -4.8643,-4.864298 c -1.24377,-1.243775 -3.07948,-1.410649 -4.11595,-0.37418 z"/> </g> </svg>