<?xml version='1.0' encoding='utf-8'?>
<svg xmlns="http://www.w3.org/2000/svg" width="1000" height="1000" viewBox="0 0 264.58332 264.58334" version="1.1" id="svg5"> <defs id="defs2"/> <metadata id="metadata856"> </metadata> <rect style="fill-opacity:0;stroke:none;stroke-width:10.5833;stroke-linecap:square;stroke-miterlimit:4;stroke-dasharray:none;stroke-opacity:1;paint-order:stroke markers fill" id="rect10005" width="264.58334" height="264.58334" x="0" y="0"/> <g id="g909"> <path style="color:#000000;fill:#f5df00;stroke-width:5.29167;stroke-linecap:round;-inkscape-stroke:none;paint-order:fill markers stroke" d="m 164.56184,84.523249 a 26.939998,26.939998 0 0 0 -26.93992,26.940201 26.939998,26.939998 0 0 0 26.93992,26.93992 26.939998,26.939998 0 0 0 25.97675,-19.87167 21.769404,21.769404 0 0 1 -2.75605,0.18821 21.769404,21.769404 0 0 1 -21.76941,-21.769397 21.769404,21.769404 0 0 1 3.586,-11.950204 26.939998,26.939998 0 0 0 -5.03729,-0.47706 z" id="path10011"/> <path style="color:#000000;fill:#c6e0f7;stroke-width:3.96875;stroke-linecap:square;-inkscape-stroke:none;paint-order:fill markers stroke" d="m 105.75682,107.46958 a 25.311391,25.311391 0 0 0 -25.310996,25.31103 25.311391,25.311391 0 0 0 0.17254,2.80172 c -9.54604,1.71411 -16.70784,9.42416 -16.70784,18.73295 0,10.57575 9.24383,19.08982 20.72609,19.08982 h 29.379316 1.60753 42.96806 c 10.57576,0 19.08983,-7.91415 19.08983,-17.74436 0,-9.76876 -8.40908,-17.64091 -18.89277,-17.73908 a 21.919142,21.919142 0 0 0 -21.74449,-19.16329 21.919142,21.919142 0 0 0 -9.03462,1.96332 25.311391,25.311391 0 0 0 -22.25267,-13.25211 z" id="path10009"/> <path style="color:#000000;fill:#3981bf;stroke-width:3.96874;stroke-linecap:round;-inkscape-stroke:none;paint-order:fill markers stroke" d="m 93.540219,161.39584 c -1.922662,2.16821 -7.126685,6.51344 -8.696917,12.42829 a 5.1838992,5.1838992 0 0 0 3.665573,6.34895 5.1838992,5.1838992 0 0 0 6.348952,-3.66556 5.1838992,5.1838992 0 0 0 0.03307,-0.12952 c 1.609786,-6.21239 -0.773768,-12.16269 -1.350731,-14.98217 z" id="circle8231"/> <path style="color:#000000;fill:#3981bf;stroke-width:3.96874;stroke-linecap:round;-inkscape-stroke:none;paint-order:fill markers stroke" d="m 117.23817,161.39584 c -1.92266,2.16821 -7.12669,6.51344 -8.69692,12.42829 a 5.1838992,5.1838992 0 0 0 3.66557,6.34895 5.1838992,5.1838992 0 0 0 6.34896,-3.66556 5.1838992,5.1838992 0 0 0 0.033,-0.12952 c 1.60978,-6.21239 -0.77378,-12.16269 -1.35074,-14.98217 z" id="path8238"/> <path style="color:#000000;fill:#3981bf;stroke-width:3.96874;stroke-linecap:round;-inkscape-stroke:none;paint-order:fill markers stroke" d="m 140.97498,162.0288 c -1.92266,2.16821 -7.12669,6.51344 -8.69693,12.42828 a 5.1838992,5.1838992 0 0 0 3.66558,6.34896 5.1838992,5.1838992 0 0 0 6.34896,-3.66556 5.1838992,5.1838992 0 0 0 0.033,-0.12952 c 1.60977,-6.21239 -0.77378,-12.1627 -1.35074,-14.98217 z" id="path8240"/> <path style="color:#000000;fill:#3981bf;stroke-width:3.96874;stroke-linecap:round;-inkscape-stroke:none;paint-order:fill markers stroke" d="m 105.40862,182.97709 c -1.92265,2.16822 -7.126682,6.51345 -8.696914,12.42829 a 5.1838992,5.1838992 0 0 0 3.665574,6.34895 5.1838992,5.1838992 0 0 0 6.34895,-3.66556 5.1838992,5.1838992 0 0 0 0.033,-0.12951 c 1.60978,-6.2124 -0.77377,-12.1627 -1.35074,-14.98218 z" id="path8852"/> <path style="color:#000000;fill:#3981bf;stroke-width:3.96874;stroke-linecap:round;-inkscape-stroke:none;paint-order:fill markers stroke" d="m 129.10658,182.97709 c -1.92267,2.16822 -7.1267,6.51345 -8.69693,12.42829 a 5.1838992,5.1838992 0 0 0 3.66557,6.34895 5.1838992,5.1838992 0 0 0 6.34897,-3.66556 5.1838992,5.1838992 0 0 0 0.033,-0.12951 c 1.60978,-6.2124 -0.77378,-12.1627 -1.35073,-14.98218 z" id="path8854"/> </g> </svg>