<?xml version='1.0' encoding='utf-8'?>
<svg xmlns="http://www.w3.org/2000/svg" width="1000" height="1000" viewBox="0 0 264.58332 264.58334" version="1.1" id="svg5"> <defs id="defs2"/> <metadata id="metadata856"> </metadata> <rect style="fill-opacity:0;stroke:none;stroke-width:10.5833;stroke-linecap:square;stroke-miterlimit:4;stroke-dasharray:none;stroke-opacity:1;paint-order:stroke markers fill" id="rect10005" width="264.58334" height="264.58334" x="0" y="0"/> <path id="path10011" style="fill:#f5df00;fill-opacity:1;stroke:none;stroke-width:5.29167;stroke-linecap:round;stroke-miterlimit:4;stroke-dasharray:none;stroke-opacity:1;paint-order:fill markers stroke" d="m 164.56184,84.523249 a 26.939998,26.939998 0 0 0 -26.93992,26.940201 26.939998,26.939998 0 0 0 26.93992,26.93992 26.939998,26.939998 0 0 0 25.97675,-19.87167 21.769404,21.769404 0 0 1 -2.75605,0.18821 21.769404,21.769404 0 0 1 -21.76941,-21.769397 21.769404,21.769404 0 0 1 3.586,-11.950204 26.939998,26.939998 0 0 0 -5.03729,-0.47706 z"/> <path id="path10009" style="fill:#c6e0f7;fill-opacity:1;stroke:none;stroke-width:3.96875;stroke-linecap:square;paint-order:fill markers stroke" d="m 105.75682,107.46958 a 25.311391,25.311391 0 0 0 -25.310996,25.31103 25.311391,25.311391 0 0 0 0.17254,2.80172 c -9.54604,1.71411 -16.70784,9.42416 -16.70784,18.73295 0,10.57575 9.24383,19.08982 20.72609,19.08982 h 29.379316 1.60753 42.96806 c 10.57576,0 19.08983,-7.91415 19.08983,-17.74436 0,-9.76876 -8.40908,-17.64091 -18.89277,-17.73908 a 21.919142,21.919142 0 0 0 -21.74449,-19.16329 21.919142,21.919142 0 0 0 -9.03462,1.96332 25.311391,25.311391 0 0 0 -22.25267,-13.25211 z"/> <path id="path6920" style="fill:#f0a905;fill-opacity:1;stroke-width:0.264582;stroke-linecap:round;paint-order:fill markers stroke" d="M 111.56597,153.45833 H 130.175 l -11.02431,20.72569 h 11.46526 l -21.25485,39.07014 7.49653,-30.42708 h -11.0243 z"/> </svg>