<?xml version='1.0' encoding='utf-8'?>
<svg xmlns="http://www.w3.org/2000/svg" width="1000" height="1000" viewBox="0 0 264.58332 264.58334" version="1.1" id="svg5"> <defs id="defs2"/> <metadata id="metadata856"> </metadata> <rect style="fill-opacity:0;stroke:none;stroke-width:10.5833;stroke-linecap:square;stroke-miterlimit:4;stroke-dasharray:none;stroke-opacity:1;paint-order:stroke markers fill" id="rect2834" width="264.58334" height="264.58334" x="-6.7529299e-06" y="-6.7529299e-06"/> <path id="path16622" style="fill:none;fill-opacity:1;stroke:#3981bf;stroke-width:6.61458;stroke-linecap:round;stroke-linejoin:round;stroke-miterlimit:4;stroke-dasharray:none;stroke-opacity:1;paint-order:fill markers stroke" d="m 85.532735,94.664138 v 0 l 3.395701,12.558942 -12.559978,3.33486 m 32.091842,-7.62165 v 0 l 4.99243,18.46446 -18.465974,4.90299 m 2.27774,-29.8398 v 0 l 4.992454,18.46445 -18.465984,4.90298 M 132.29166,132.29168 72.222228,97.565109 m 4.14623,56.460291 v 0 l 12.55997,3.33485 -3.395702,12.55895 m 9.45403,-31.6396 v 0 l 18.465974,4.90299 -4.99244,18.46445 M 83.790966,144.75197 v 0 l 18.465984,4.90298 -4.992454,18.46445 m 35.027164,-35.82772 -60.069432,34.72655 m 50.905162,24.6347 v 0 l 9.16427,-9.22408 9.16427,9.22408 m -22.6378,-24.01794 v 0 l 13.47353,-13.56148 13.47354,13.56148 m -26.94705,12.94472 v 0 l 13.47351,-13.56148 13.47354,13.56148 m -13.47354,-48.28803 v 69.45311 m 46.75893,-31.82559 v 0 l -3.3957,-12.55894 12.55997,-3.33485 m -32.09183,7.62164 v 0 l -4.99243,-18.46446 18.46597,-4.90298 m -2.27774,29.83979 v 0 l -4.99245,-18.46445 18.46598,-4.90298 m -48.5007,-12.46029 60.06944,34.72655 m -4.14623,-56.46029 v 0 l -12.55998,-3.33485 3.3957,-12.558944 m -9.45401,31.639604 v 0 l -18.46598,-4.903 4.99243,-18.46445 m 24.66933,16.89507 v 0 l -18.46598,-4.90298 4.99245,-18.46445 M 132.29166,132.29168 192.3611,97.565109 M 141.45594,72.930408 v 0 l -9.16428,9.224088 -9.16426,-9.224088 m 22.6378,24.017954 v 0 L 132.29166,110.50983 118.81814,96.948362 M 145.7652,84.00363 v 0 L 132.29166,97.565109 118.81814,84.00363 m 13.47352,48.28805 V 62.838539"/> </svg>